<svg width="1000" height="1000" viewBox="0 0 1000 1000" fill="none" xmlns="http://www.w3.org/2000/svg">
<g clip-path="url(#clip0_9875_40952)">
<path d="M500 1000C776.25 1000 1000 776.25 1000 500C1000 223.75 776.25 0 500 0C223.75 0 0 223.75 0 500C0 776.25 223.75 1000 500 1000Z" fill="#075A5A"/>
<g opacity="0.3">
<path opacity="0.8" d="M498.75 62.5V393.333L778.333 518.333L498.75 62.5Z" fill="white"/>
<path d="M498.333 62.5L218.75 518.333L498.333 393.333V62.5Z" fill="white"/>
<path opacity="0.8" d="M498.75 732.5V957.5L778.75 570.417L498.75 732.917V732.5Z" fill="white"/>
<path d="M498.333 957.5V732.5L218.75 570L498.333 957.083V957.5Z" fill="white"/>
<path opacity="0.5" d="M498.75 680.834L778.333 518.333L498.75 393.333V680.417V680.834Z" fill="white"/>
<path opacity="0.3" d="M218.75 518.333L498.333 680.833V393.75L218.75 518.333Z" fill="white"/>
</g>
<g opacity="0.3">
<path opacity="0.8" d="M498.75 79.1667V385.833L757.917 501.667L498.75 79.1667Z" fill="white"/>
<path d="M498.333 79.1667L239.167 501.667L498.333 385.833V79.1667Z" fill="white"/>
<path opacity="0.8" d="M498.75 747.917V933.75L730 613.75L498.75 747.917Z" fill="white"/>
<path d="M498.75 933.333V747.5L267.5 613.333L498.75 933.333Z" fill="white"/>
<path opacity="0.5" d="M498.75 670L757.917 519.583L498.75 403.75V670Z" fill="white"/>
<path opacity="0.3" d="M239.167 519.583L498.333 670V403.75L239.167 519.583Z" fill="white"/>
</g>
<path d="M498.75 160.833V419.167L717.083 516.667L498.75 160.833Z" fill="#C1DCDC"/>
<path d="M498.75 160.833L280.417 516.667L498.75 419.167V160.833Z" fill="white"/>
<path d="M498.75 683.75V859.167L717.083 557.083L498.75 683.75Z" fill="#C1DCDC"/>
<path d="M498.75 859.167V683.75L280.417 557.083L498.75 859.167Z" fill="white"/>
<path opacity="0.5" d="M498.75 643.333L717.083 516.666L498.75 419.167V643.333Z" fill="white"/>
<path opacity="0.3" d="M280.417 516.25L498.75 643.333V418.75L280.417 516.25Z" fill="white"/>
</g>
<defs>
<clipPath id="clip0_9875_40952">
<rect width="1000" height="1000" fill="white"/>
</clipPath>
</defs>
</svg>
