<svg width="32" height="33" viewBox="0 0 32 33" fill="none" xmlns="http://www.w3.org/2000/svg"
    xmlns:xlink="http://www.w3.org/1999/xlink" preserveAspectRatio="xMidYMid meet">
    <circle cx="16" cy="16.2954" r="16" fill="#213147" />
    <g id="surface1" transform="translate(2.8,3) scale(1.15)">
        <path style=" stroke:none;fill-rule:nonzero;fill:rgb(12.941176%,19.215686%,27.843137%);fill-opacity:1;"
            d="M 2.078125 6.992188 L 2.078125 16.007812 C 2.078125 16.585938 2.382812 17.113281 2.890625 17.40625 L 10.699219 21.914062 C 11.195312 22.199219 11.8125 22.199219 12.308594 21.914062 L 20.121094 17.40625 C 20.617188 17.121094 20.929688 16.585938 20.929688 16.007812 L 20.929688 6.992188 C 20.929688 6.414062 20.625 5.886719 20.121094 5.59375 L 12.308594 1.085938 C 11.8125 0.800781 11.195312 0.800781 10.699219 1.085938 L 2.890625 5.59375 C 2.390625 5.878906 2.089844 6.414062 2.089844 6.992188 Z M 2.078125 6.992188 " />
        <path style=" stroke:none;fill-rule:nonzero;fill:rgb(7.058824%,66.666667%,100%);fill-opacity:1;"
            d="M 13.203125 13.246094 L 12.089844 16.300781 C 12.0625 16.386719 12.0625 16.476562 12.089844 16.570312 L 14.003906 21.824219 L 16.21875 20.542969 L 13.5625 13.246094 C 13.496094 13.082031 13.265625 13.082031 13.203125 13.246094 Z M 13.203125 13.246094 " />
        <path style=" stroke:none;fill-rule:nonzero;fill:rgb(7.058824%,66.666667%,100%);fill-opacity:1;"
            d="M 15.4375 8.113281 C 15.375 7.949219 15.144531 7.949219 15.078125 8.113281 L 13.964844 11.167969 C 13.9375 11.25 13.9375 11.34375 13.964844 11.4375 L 17.101562 20.039062 L 19.320312 18.757812 L 15.4375 8.125 Z M 15.4375 8.113281 " />
        <path style=" stroke:none;fill-rule:nonzero;fill:rgb(61.568627%,80%,92.941176%);fill-opacity:1;"
            d="M 11.5 1.425781 C 11.554688 1.425781 11.609375 1.445312 11.65625 1.472656 L 20.101562 6.347656 C 20.203125 6.402344 20.257812 6.511719 20.257812 6.625 L 20.257812 16.375 C 20.257812 16.488281 20.195312 16.597656 20.101562 16.652344 L 11.65625 21.527344 C 11.609375 21.554688 11.554688 21.574219 11.5 21.574219 C 11.445312 21.574219 11.390625 21.554688 11.34375 21.527344 L 2.898438 16.652344 C 2.796875 16.597656 2.742188 16.488281 2.742188 16.375 L 2.742188 6.613281 C 2.742188 6.503906 2.804688 6.394531 2.898438 6.339844 L 11.34375 1.460938 C 11.390625 1.433594 11.445312 1.417969 11.5 1.417969 Z M 11.5 0 C 11.195312 0 10.902344 0.0742188 10.625 0.230469 L 2.179688 5.105469 C 1.636719 5.417969 1.304688 5.988281 1.304688 6.613281 L 1.304688 16.367188 C 1.304688 16.992188 1.636719 17.5625 2.179688 17.875 L 10.625 22.75 C 10.894531 22.90625 11.195312 22.980469 11.5 22.980469 C 11.804688 22.980469 12.097656 22.90625 12.375 22.75 L 20.820312 17.875 C 21.363281 17.5625 21.695312 16.992188 21.695312 16.367188 L 21.695312 6.613281 C 21.695312 5.988281 21.363281 5.417969 20.820312 5.105469 L 12.363281 0.230469 C 12.097656 0.0742188 11.792969 0 11.492188 0 Z M 11.5 0 " />
        <path style=" stroke:none;fill-rule:nonzero;fill:rgb(12.941176%,19.215686%,27.843137%);fill-opacity:1;"
            d="M 5.90625 20.046875 L 6.6875 17.914062 L 8.253906 19.210938 L 6.789062 20.554688 Z M 5.90625 20.046875 " />
        <path style=" stroke:none;fill-rule:nonzero;fill:rgb(100%,100%,100%);fill-opacity:1;"
            d="M 10.78125 5.925781 L 8.640625 5.925781 C 8.480469 5.925781 8.335938 6.027344 8.28125 6.171875 L 3.6875 18.757812 L 5.90625 20.039062 L 10.964844 6.171875 C 11.011719 6.042969 10.921875 5.914062 10.792969 5.914062 Z M 10.78125 5.925781 " />
        <path style=" stroke:none;fill-rule:nonzero;fill:rgb(100%,100%,100%);fill-opacity:1;"
            d="M 14.535156 5.925781 L 12.390625 5.925781 C 12.234375 5.925781 12.089844 6.027344 12.035156 6.171875 L 6.789062 20.542969 L 9.007812 21.824219 L 14.710938 6.171875 C 14.757812 6.042969 14.664062 5.914062 14.535156 5.914062 Z M 14.535156 5.925781 " />
    </g>
</svg>