<svg width="2561" height="216" viewBox="0 0 2561 216" fill="none" xmlns="http://www.w3.org/2000/svg">
<rect x="1.00012" y="125.627" width="2560" height="89.905" fill="black"/>
<path d="M787.215 15.3076C722.583 39.607 579.429 40.3095 515.931 37.6234C489.709 35.4538 405.121 43.0163 276.537 90.6233C147.953 138.23 39.269 144.966 1 142.383V205.611H2462.12V173.997C2227.55 155.814 1703.55 111.761 1484.14 81.0151C1209.88 42.5824 1254.95 60.2491 1171.18 41.9625C1087.41 23.676 1019.81 32.9743 983.663 21.8164C947.52 10.6585 868.005 -15.0666 787.215 15.3076Z" fill="black" stroke="black" stroke-width="0.18255"/>
<path d="M787.215 15.3076C722.583 39.607 579.429 40.3095 515.931 37.6234C489.709 35.4538 405.121 43.0163 276.537 90.6233C147.953 138.23 39.269 144.966 1 142.383V205.611H2462.12V173.997C2227.55 155.814 1703.55 111.761 1484.14 81.0151C1209.88 42.5824 1254.95 60.2491 1171.18 41.9625C1087.41 23.676 1019.81 32.9743 983.663 21.8164C947.52 10.6585 868.005 -15.0666 787.215 15.3076Z" fill="url(#paint0_linear_502_2)"/>
<path d="M1186.22 87.1372C1009.69 100.643 161.693 158.531 98.0737 155.079V205.302H2561V107.956C2548.98 109.682 2498.61 112.099 2393.34 107.956C2261.76 102.777 2229.92 79.3692 2036.86 74.1905C1843.8 69.0117 1737.79 17.1211 1597.74 17.1211C1457.69 17.1211 1406.88 70.2546 1186.22 87.1372Z" fill="black"/>
<path d="M1186.22 87.1372C1009.69 100.643 161.693 158.531 98.0737 155.079V205.302H2561V107.956C2548.98 109.682 2498.61 112.099 2393.34 107.956C2261.76 102.777 2229.92 79.3692 2036.86 74.1905C1843.8 69.0117 1737.79 17.1211 1597.74 17.1211C1457.69 17.1211 1406.88 70.2546 1186.22 87.1372Z" fill="url(#paint1_linear_502_2)"/>
<path d="M417.528 105.986C326.584 138.72 101.949 137.896 1.00024 133.393V216H2462.42C2040.5 195.927 1177.52 152.23 1100.96 138.025C1005.25 120.269 971.551 110.618 905.949 111.776C853.467 112.703 785.229 95.1777 757.67 86.2995C572.996 29.5556 531.208 65.0688 417.528 105.986Z" fill="black"/>
<path d="M417.889 105.986C326.945 138.72 102.31 137.897 1.36108 133.393V216H2462.78C2040.86 195.927 1177.88 152.231 1101.32 138.025C1005.61 120.269 971.911 110.618 906.309 111.776C853.828 112.703 785.59 95.178 758.031 86.2997C573.357 29.5559 531.569 65.069 417.889 105.986Z" fill="url(#paint2_linear_502_2)"/>
<defs>
<linearGradient id="paint0_linear_502_2" x1="923.359" y1="-215.809" x2="925.719" y2="138.054" gradientUnits="userSpaceOnUse">
<stop offset="0.186853" stop-color="#CEA68F"/>
<stop offset="1" stop-opacity="0"/>
</linearGradient>
<linearGradient id="paint1_linear_502_2" x1="1426.79" y1="-497.198" x2="1570.37" y2="276.045" gradientUnits="userSpaceOnUse">
<stop offset="0.186853" stop-color="#FFB08C"/>
<stop offset="1" stop-opacity="0"/>
</linearGradient>
<linearGradient id="paint2_linear_502_2" x1="753.411" y1="-78.9846" x2="729.674" y2="168.28" gradientUnits="userSpaceOnUse">
<stop offset="0.186853" stop-color="#FF9C68"/>
<stop offset="1" stop-opacity="0"/>
</linearGradient>
</defs>
</svg>
