<svg width="16" height="16" viewBox="0 0 16 16" fill="none" xmlns="http://www.w3.org/2000/svg">
<g clip-path="url(#clip0_9342_25236)">
<path d="M9.38243 16V9.424C10.9528 9.592 12.0184 10.312 12.0184 10.312L13.0199 9.184C11.3774 8.016 8.94177 7.968 8.94177 7.968L8.54116 3.552C8.80556 3.376 8.98183 3.08 8.98183 2.736C8.98183 2.2 8.54117 1.76 8.00436 1.76C7.46755 1.76 7.02689 2.2 7.02689 2.736C7.02689 3.08 7.20316 3.384 7.46755 3.552L7.06695 7.968C7.06695 7.968 4.6313 8.008 2.98884 9.184L3.99034 10.312C3.99034 10.312 5.05594 9.592 6.62629 9.424V16C0.489086 11.456 -0.015671 4.856 0.000353009 2.664C0.000353009 2.208 0.272762 1.792 0.689387 1.608C1.91523 1.064 4.71142 0 7.99635 0C11.2813 0 14.0775 1.064 15.3033 1.608C15.7199 1.792 15.9923 2.208 15.9923 2.664C16.0084 4.856 15.5036 11.456 9.38243 16Z" fill="#FFAF1D"/>
</g>
<defs>
<clipPath id="clip0_9342_25236">
<rect width="16" height="16" fill="white"/>
</clipPath>
</defs>
</svg>
