<svg width="17" height="17" viewBox="0 0 17 17" fill="none" xmlns="http://www.w3.org/2000/svg">
  <g clip-path="url(#clip0_9948_164307)">
  <path d="M16.4385 0.893555H0.438477V16.5525H16.4385V0.893555Z" fill="white"/>
  <path d="M9.0625 5.20079V4.02637H7.8625V5.20079H9.0625Z" fill="#1A0C6D"/>
  <path d="M6.6145 8.72406V4.02637H4.2145V8.72406H6.6145Z" fill="#1A0C6D"/>
  <path d="M6.6145 13.4213V8.72363H4.2145V13.4213H6.6145Z" fill="#1A0C6D"/>
  <path d="M11.4145 8.72287V6.37402H10.2145V8.72287H11.4145Z" fill="#1A0C6D"/>
  <path d="M10.2145 13.4211V11.0723H9.01448V13.4211H10.2145Z" fill="#1A0C6D"/>
  <path d="M11.4145 13.4211V11.0723H10.2145V13.4211H11.4145Z" fill="#1A0C6D"/>
  <path d="M7.81445 13.4211V11.0723H6.61445V13.4211H7.81445Z" fill="#1A0C6D"/>
  <path d="M12.6145 6.37521V4.02637H11.4145V6.37521H12.6145Z" fill="#1A0C6D"/>
  <path d="M10.2145 8.72406V4.02637H9.01448V8.72406H10.2145Z" fill="#1A0C6D"/>
  <path d="M9.01447 13.4213V8.72363H7.81447V13.4213H9.01447Z" fill="#1A0C6D"/>
  </g>
  <defs>
  <clipPath id="clip0_9948_164307">
  <rect x="0.438477" y="0.893555" width="16" height="15.659" rx="7.82948" fill="white"/>
  </clipPath>
  </defs>
  </svg>
  