<svg xmlns="http://www.w3.org/2000/svg" width="202" height="182" viewBox="0 0 202 182" fill="none" class="injected-svg" data-src="/static/images/your-position/position-connect-wallet.svg" xmlns:xlink="http://www.w3.org/1999/xlink">
<path d="M18.8725 55.1751V138.241C18.8725 142.034 22.3689 144.854 26.0726 144.06L165.12 114.031L165.464 26.828C165.464 26.828 160.966 18.555 139.816 22.119L25.0287 46.8377C25.0287 46.8377 18.1575 48.6126 18.8725 55.168V55.1751Z" fill="#757576"></path>
<path d="M26.0742 144.053V62.6045C26.0742 59.1264 28.4838 56.1135 31.8801 55.3549L149.592 29.0403V116.2L26.0742 144.053Z" fill="#606161"></path>
<path d="M167.731 127.776V28.9228C167.731 28.8727 167.731 28.8154 167.724 28.7653C166.193 15.1106 136.206 21.4871 136.206 21.4871L27.0027 44.7244C26.9598 44.7316 26.9098 44.7459 26.8669 44.7602C16.0416 48.3242 18.8731 55.1802 18.8731 55.1802C20.06 48.3027 28.1181 47.1147 28.1181 47.1147L135.555 24.4714C135.555 24.4714 156.112 20.9146 162.025 26.6756C164.985 29.5597 164.091 32.1933 162.461 34.097C162.418 34.1471 162.375 34.19 162.325 34.2329C160.952 35.4066 157.735 37.4248 150.799 38.9634C150.327 39.0708 149.898 39.1853 149.498 39.3141C149.477 39.3141 149.455 39.3284 149.434 39.3356L48.7604 63.2027C43.9556 64.3405 40.5664 68.6345 40.5664 73.5725V154.735C40.5664 159.394 44.8994 162.836 49.4325 161.784L159.308 136.285C167.895 133.824 167.731 127.769 167.731 127.769V127.776Z" fill="#29292A"></path>
<path d="M167.731 127.776V28.9228C167.731 28.8727 167.731 28.8154 167.724 28.7653C166.193 15.1106 136.206 21.4871 136.206 21.4871L27.0027 44.7244C26.9598 44.7316 26.9098 44.7459 26.8669 44.7602C16.0416 48.3242 18.8731 55.1802 18.8731 55.1802C20.06 48.3027 28.1181 47.1147 28.1181 47.1147L135.555 24.4714C135.555 24.4714 156.112 20.9146 162.025 26.6756C164.985 29.5597 164.091 32.1933 162.461 34.097C162.418 34.1471 162.375 34.19 162.325 34.2329C160.952 35.4066 157.735 37.4248 150.799 38.9634C150.327 39.0708 149.898 39.1853 149.498 39.3141C149.477 39.3141 149.455 39.3284 149.434 39.3356L48.7604 63.2027C43.9556 64.3405 40.5664 68.6345 40.5664 73.5725V154.735C40.5664 159.394 44.8994 162.836 49.4325 161.784L159.308 136.285C167.895 133.824 167.731 127.769 167.731 127.769V127.776Z" fill="url(#paint0_linear_2320_135712-85)"></path>
<path d="M18.8725 87.3374V97.2492C18.8725 97.2492 19.373 103.797 25.7508 103.297C29.619 102.989 40.3871 102.624 48.2665 102.38C53.2072 102.23 57.297 106.195 57.297 111.147C57.297 116.851 52.8211 121.546 47.1225 121.811L24.9786 122.834C24.9786 122.834 9.35568 122.004 10.0206 105.701C10.6856 89.3985 18.8725 87.3374 18.8725 87.3374Z" fill="#333333"></path>
<path d="M48.6105 116.61C51.3748 116.61 53.6156 114.367 53.6156 111.6C53.6156 108.833 51.3748 106.591 48.6105 106.591C45.8463 106.591 43.6055 108.833 43.6055 111.6C43.6055 114.367 45.8463 116.61 48.6105 116.61Z" fill="#606161"></path>
<path d="M35.5195 52.6072V49.308L142.127 26.5144L142.499 28.5683L35.5195 52.6072Z" fill="#CA7853"></path>
<path d="M34.082 55.0401V51.6121L144.201 27.9382L144.587 30.0709L34.082 55.0401Z" fill="#FFB18E"></path>
<path d="M161.185 156.863C175.366 156.863 186.862 145.356 186.862 131.162C186.862 116.969 175.366 105.462 161.185 105.462C147.004 105.462 135.508 116.969 135.508 131.162C135.508 145.356 147.004 156.863 161.185 156.863Z" fill="#333333" stroke="#FF7067" stroke-width="5.12417" stroke-linecap="round" stroke-linejoin="round"></path>
<path d="M168.895 123.448L153.488 138.869" stroke="#FF7067" stroke-width="5.12417" stroke-linecap="round" stroke-linejoin="round"></path>
<path d="M153.488 123.448L168.895 138.869" stroke="#FF7067" stroke-width="5.12417" stroke-linecap="round" stroke-linejoin="round"></path>
<defs>
<linearGradient id="paint0_linear_2320_135712-85" x1="164.983" y1="131.448" x2="-429.415" y2="251.223" gradientUnits="userSpaceOnUse">
<stop stop-color="#232323"></stop>
<stop offset="1" stop-color="white" stop-opacity="0"></stop>
</linearGradient>
</defs>
</svg>